<?xml version="1.0" encoding="utf-8"?>
<!-- Generator: Adobe Illustrator 15.0.0, SVG Export Plug-In . SVG Version: 6.00 Build 0)  -->
<!DOCTYPE svg PUBLIC "-//W3C//DTD SVG 1.1//EN" "http://www.w3.org/Graphics/SVG/1.1/DTD/svg11.dtd">
<svg version="1.1" id="Layer_1" xmlns="http://www.w3.org/2000/svg" xmlns:xlink="http://www.w3.org/1999/xlink" x="0px" y="0px"
	 width="1020px" height="1044px" viewBox="-50.439 -52.243 1020 1044" enable-background="new -50.439 -52.243 1020 1044"
	 xml:space="preserve">
<image overflow="visible" enable-background="new    " width="1020" height="1044" xlink:href="bg-sjb.jpg"  transform="matrix(1 0 0 1 -50.4395 -52.2432)">
</image>
<path fill-opacity="0" d="M191.54,363.736c0,0-1.04,1.458-3.028,6.994c-1.988,5.535-6.79,17.016-6.79,23.172
	c0,6.168-1.142,16.495-3.548,21.513c-2.396,5.005-5.005,18.472,0,22.551c5.015,3.966,35.814,8.971,46.457,10.54
	c10.644,1.458,29.964,4.485,34.969,5.955c5.016,1.458,27.251,3.752,31.533,5.524c4.281,1.775,13.151,7.208,18.789,3.56
	c5.638-3.66,12.529-23.184,14.2-29.964c1.673-6.789,4.803-21.512,4.803-24.223c0-2.712,11.163-5.536,13.152-5.536
	c1.986,0,49.484-0.203,54.49-1.978c5.017-1.774,7.207-3.242,7.207-10.236c0-6.993-0.213-98.022,0-103.241
	c0.205-5.221,0.838-11.797-7.514-15.037c-8.359-3.233-59.201-3.967-63.167-2.509c-3.966,1.468-8.972,5.852-8.972,13.048
	c0,7.209-0.213,92.5-0.213,95.211c0,2.722-1.979,4.18-3.549,4.18c-1.458,0-58.986-8.981-66.5-10.542
	C246.55,371.251,200.307,361.024,191.54,363.736z"/>
<path fill-opacity="0" d="M426.745,297.134c0,0,9.807-16.812,9.807-19.208c0,0,18.168,4.486,21.194,8.452
	c3.027,3.967,6.158,2.824,9.809,7.523c3.547,4.69,18.166,10.96,21,11.164c0,0-27.261-24.946-30.91-29.545
	c-3.66-4.485-6.056-4.169-8.359-5.739c-2.191-1.457-9.492-3.966-6.779-6.791c2.61-2.609,13.885-16.279,18.268-17.85
	c0.317-0.103,0.521-0.103,0.735-0.103c3.751,0-5.016-5.841-8.982-5.535c-3.966,0.315-14.823-2.814-9.501-6.994
	c5.321-4.169,19.839-17.739,19.839-17.739s2.192-3.027,5.525,0c3.344,3.028,8.991,7.515,9.196,11.48
	c0.204,3.965,0.204,3.965,0.204,3.965s3.221-0.835,4.484,0.215c1.266,1.039,4.812,1.979,6.159,5.219
	c1.365,3.231,2.812,0,3.976,1.143c1.142,1.15,8.461,5.536,10.012,8.247c1.468,2.713,3.751,8.248,3.751,8.248
	s17.556,7.829,24.224,19.003c6.687,11.174,13.172,12.529,17.025,15.027c3.771,2.508,10.745,9.5,11.479,13.467
	s3.548,4.18,8.768,6.994c5.342,2.823,17.536,15.455,20.064,21.194c2.486,5.74,6.77,5.536,10.521,8.463
	c3.771,2.914,13.477,14.506,15.455,20.46c0,0,10.235,5.526,17.738,13.05c7.546,7.515,8.769,10.226,10.971,15.241
	c2.202,5.006,11.174,4.169,21.511,17.953s12.214,8.452,14.211,9.186c1.958,0.733,18.474,5.536,21.492,12.214
	c3.017,6.687,3.548,2.507,7.217,4.18c3.63,1.672,12.826,1.978,15.231,4.801c2.385,2.815,10.542,10.227,16.495,12.214
	c5.954,1.979,10.032,1.979,10.745,2.814c0.835,0.835,4.507,0.214,8.055,3.762s2.486,6.994,12.519,9.186s17.74,7.514,17.535,10.021
	c-0.326,2.508-9.502,19.84-12.52,20.473c-3.037,0.732-5.22,0.814-7.829,0c-2.61-0.856-5.852-3.753-8.259-5.221
	c-2.384-1.367-1.978-3.548-7.196-5.219c-5.22-1.673-8.972-5.547-12.233-5.547c-3.222,0-3.222-1.773-3.222,0
	c0,1.784,2.813,4.18,5.545,7.523c2.691,3.324,5.506,4.996,3.955,7.83c-1.467,2.814-17.941,20.45-20.98,20.45
	c0,0,1.041,5.017,3.752,8.034c2.835,3.039,8.054,8.992,8.768,9.828c0.837,0.835-17.229,15.986-18.983,15.986
	c-1.793,0-3.262,1.141-5.952-2.202c-2.815-3.446-1.47-5.955-7.829-10.236c-6.383-4.281-5.018-6.79-7.015-8.972
	c-1.979-2.202-5.955-5.22-7.505-8.768c-1.467-3.548-1.997-5.852-8.032-11.806c-6.076-5.953-13.172-15.761-15.456-20.043
	c-2.305-4.181-13.05-9.502-16.495-14.507c-3.445-5.017-6.993-12.011-11.479-16.19c-4.486-4.169-13.05-10.745-17.025-17.015
	c-3.975-6.157-11.152-10.745-15.761-15.964c-4.608-5.222-8.768-13.998-15.456-20.461c-6.688-6.476-15.761-12.012-20.47-15.039
	c-4.691-3.026-9.177-8.032-11.989-10.54c-2.814-2.509-20.98-6.79-25.488-11.49c-4.485-4.69-34.214-24.947-45.51-29.014
	c-11.255-3.967-18.788-7.831-22.225-12.012c-3.445-4.179-7.207-5.534-15.976-9.817C439.793,308.308,424.022,304.963,426.745,297.134
	z"/>
<path fill-opacity="0" d="M573.824,500.694c0,0,31.319-24.733,72.037,0c40.719,24.753,43.327,36.333,46.673,46.773
	c3.343,10.562,4.688,47.182-13.253,73.199c-17.965,25.976-36.743,57.296-68.715,61.271c-32.031,3.976-20.654,16.699-44.652,35.296
	c-24.021,18.676-27.995,24.731-78.011,22.02c-49.995-2.732-49.262-25.997-49.995-29.973c-0.725-3.955-10.022-54.686-5.322-69.937
	c4.699-15.354,17.331-29.341,27.036-33.317c0,0-3.028-8.645,6.995-10.644c10.031-1.979,38.006-1.979,46.04-12.723
	C520.485,572.017,535.208,535.255,573.824,500.694z"/>
<path fill-opacity="0" d="M386.025,546.122c-3.649-0.325-11.692-9.624-12.631-14.313c-1.04-4.689-13.671-6.688-11.693-14.395
	c1.988-7.729,5.32-10.645,9.705-10.645c4.394,0,3.66-5.016,3.344-15.658c-0.315-10.665,0-46.255,0-46.255
	s-10.959-11.693-5.321-17.025c5.739-5.321,14.722-20.664,23.692-23.274c8.982-2.712,12.326-5.016,17.016,0.734
	c4.7,5.738,17.026-7.31,18.687-7.31c1.673,0,4.7-3.967,10.022-0.734c5.434,3.548,13.049,7.626,13.049,7.626
	s-5.943-33.308-4.688-46.673c1.253-13.254,6.677-13.254,15.343-13.254c8.675,0,22.866-2.508,26.72-4.698
	c3.772-2.192,19.31,3.966,25.262,17.331c5.955,13.254,17.332,50.006,21.287,53.971c3.998,3.966,8.688,12.011,11.298,12.011
	c2.711,0,13.66-5.017,24.731-1.673c10.95,3.334,27.669,35.702,24.326,47.284c-3.345,11.703-15.334,19.104-17.74,20.675
	c-2.303,1.57-1.671,5.546-4.811,6.994c-0.837,0.427-35.806,40.311-35.806,40.311h-1.038c0,0-58.052-15.66-70.999-13.703
	c0,0,13.051,15.374-4.271,27.995c0,0,29.004-8.054,32.042-8.359c3.038-0.307,2.712,1.978,3.344,8.359
	c0.734,6.261,4.792,33.296,3.976,36.008c-0.856,2.713-50.117,6.261-53.878,4.712c-3.752-1.57-3.132-6.281-11.798-6.688
	c-8.663-0.326-10.959,2.284-15.975,2.284c-5.006,0-29.962-1.672-34.346-5.731c-4.383-4.057-13.672-13.68-11.276-23.283
	C375.688,548.731,380.072,547.061,386.025,546.122"/>
<path fill-opacity="0" d="M370.367,504.976c0,0,0.621-14.804-8.564-20.144c-9.186-5.424-20.144-2.916-24.426,1.467
	c0,0,0-10.959-8.972-14.824c-8.982-3.863-17.025-0.835-20.155,2.815c-3.232,3.548-9.809,13.15-3.232,23.795
	c6.576,10.643,13.05,7.014,13.05,7.014s-12.529,4.158-10.96,20.96c0,0-12.846-8.034-24.854,4.811c0,0-2.191,0.205-3.966-4.157
	c-1.773-4.404-6.474-15.253-22.754-10.97c-16.281,4.281-13.988,20.98-10.542,26.2c0,0-15.037-0.837-20.777,7.523
	c-5.842,8.34-7.513,25.977,10.541,29.219c0,0-6.993,12.539-3.751,18.779c3.23,6.279,3.028,10.969,13.467,15.781
	c0,0-5.219,15.027,2.498,20.757c7.727,5.75,17.545,9.502,25.478,5.872c0,0,0,1.956,9.186,7.504
	c9.185,5.545,13.568,3.241,13.568,3.241s-8.554,10.949-1.876,18.167c6.679,7.196,13.987,10.747,17.535,10.747
	c0,0-11.162,11.478,0.215,19.838c11.377,8.358,22.02,4.812,26.517,2.813c0,0,6.993,12.518,15.761,12.847
	c8.769,0.306,17.953-2,21.195-12.012c0,0,2.191,5.221,12,6.158c9.817,1.041,16.178-1.04,19.206-7.197
	c3.027-6.157,1.988-14.925,1.988-14.925s21.399,9.501,23.692-5.017c2.304-14.518-2.396-27.444-2.191-37.17
	c0.214-9.705,7.208-23.795,12.009-27.465c4.803-3.629,15.037-16.801,6.994-22.958c0,0-6.157-6.77-12.529-6.464
	c-6.26,0.306-9.808,1.142-18.157,1.979c-8.359,0.835-27.464-2.815-31.849-4.486c-4.384-1.672-15.028-15.986-14.508-22.551
	c0.521-6.484,9.502-17.536,11.797-17.536c2.293,0-9.502,1.041-9.502-15.454c0,0-13.987-5.955-13.987-10.033
	C359.51,515.844,364.311,504.467,370.367,504.976z"/>
</svg>
